<svg xmlns="http://www.w3.org/2000/svg" width="2500" height="1019" viewBox="0 0 805.792 328.48"><g fill="#3a8758"><path d="M687.57 4.07c-3.6-2.67-7.14-2.55-10.4-1.46-2.16.82-4.16.28-6.2-.55-3.48-1.78-7.38-3.43-10.63-.26-1.54 1.5-2.12 2.8-2.26 4.24-.1 2.33-.13 4.66-.17 7l30.7-7.97a9.04 9.04 0 0 0-1.03-1zm-35.82 11.7c.22.55.5 1.1 1.4 1.66 1.15.58 2.48.84 4-.7a3.18 3.18 0 0 0 .72-2.06c.02-.55.03-1.1.04-1.64l-6.33 1.64c0 .37.06.74.18 1.1zm-12.9 24.36c-.7.44-1.4.9-2.02 1.73-2 3.27-2.12 6.14.45 8.9 1.9 2.02 3.7 2.6 5.4 4.32 1.33 1.3 1.78 2.53 2.02 3.76.44 2.4 1.5 4.76 3.97 6.85 2.3 1.8 4.57 2.17 6.75 2.05a9.43 9.43 0 0 0 1.43-.2l-11.38-31.48-6.6 4.06zm28.2-9.48a3.17 3.17 0 0 0-1.03-.39c-.93-.1-1.84-.12-2.98 1.08-.9 1.18-1.14 2.54.02 4.07.24.3.53.53.85.7.48.3.94.58 1.4.86l1.75-6.3zm-4.46 33.1c.53-.72.98-1.5 1.34-2.33 1-2.2.7-4.45 2.8-6.34 1.4-1.37 3.07-2.3 4.36-3.34 3.77-3.16 3.3-6.3 1.97-9.1-.36-.73-1.13-1.6-1.8-2.03-2-1.26-3.97-2.44-5.96-3.64l-8.45 30.57c1.97-.38 4.08-1.57 5.74-3.8zM667.06 30.65l6.82 3.7c2.57 1.57 5.45 1.05 7.8-.52 2.46-2.23 2.46-4.23 2.68-6.2.26-2.62.15-5.37 2.8-7.7A11.47 11.47 0 0 0 689 18c2.9-4.18 2.86-8.1.52-11.78a9.66 9.66 0 0 0-.9-1.13l-21.57 25.58zm-15.7-23.73c0-1.47-.3-2.82-1.55-4.32-2.33-2.78-4.7-2.85-6.87-2.37-3.38.86-7.26 3.93-10.7 2.4-3.66-1.23-7.1-1.03-10.4 1.44-1.37 1.16-2.12 2.25-2.68 3.38-.2.43-.38.88-.52 1.34l32.93 5.88-.2-7.77zm154.28 106.04c-.2-.62-1.03-1.28-1.58-1.35-11.42-.06-22.8.03-34.18.04a2.94 2.94 0 0 0-1.85.32c-.8.45-1.05.9-1.28 1.38l-1.13 4a2.03 2.03 0 0 1-.3.65c-1.22 1.3-2.26 1-3.15.3-2.7-3.28-5.3-4.6-8.13-5.9-6.03-2.66-12.07-3.2-18.02-3.1-4.77.24-9.53.74-14.18 2.96a47.77 47.77 0 0 0-11.5 7.7 47.47 47.47 0 0 0-8.8 10.7 47.77 47.77 0 0 0-5.32 12.77 61.7 61.7 0 0 0-1.68 9c-.7 6.04-.3 12.55.67 17.93.48 2.66 1.05 4.94 1.78 7.16a47.33 47.33 0 0 0 2.7 6.48c1.05 2.1 2.26 4.1 3.34 5.66s2.05 2.68 3.1 3.72 2.14 2 3.3 2.87c3.76 2.73 7.08 4.13 10.8 5.4 10.2 3.33 20.34 2.77 30.06-2.08 2.38-1.23 4.7-3.23 7.15-5.06 1.72-1.36 3.7-1.8 5.25-.8a3.34 3.34 0 0 1 1.08 1.93c.05 8.44.1 16.83.16 25.25.05 3.75-.56 7.67-2.44 11.03a19.8 19.8 0 0 1-4.3 5.42 20 20 0 0 1-5.93 3.6c-6.44 2.4-12.92 2.14-18.82-.24-2.2-.8-4.3-1.95-6.17-3.38a23.5 23.5 0 0 1-8.07-11.34 23.68 23.68 0 0 1-1.17-6.94l-11.13.52a41.67 41.67 0 0 1-2.27 7.63 40.56 40.56 0 0 1-3.7 7.05c-1.44 2.22-3.12 4.3-4.86 6.16s-3.53 3.52-5.38 5.1a80.86 80.86 0 0 1-5.8 4.48 76.17 76.17 0 0 1-6.37 4.03 97.52 97.52 0 0 1-24.04 9.66 182.78 182.78 0 0 1-23.14 4.37 177.3 177.3 0 0 1-23.5 1.33c-7.84-.08-15.68-.7-22.65-1.55-6.96-.83-13.05-1.9-19.12-3.12a428.6 428.6 0 0 1-17.98-4.04c-5.88-1.45-11.6-2.98-17.33-4.57a1081.03 1081.03 0 0 1-18.7-5.4 3284 3284 0 0 1-25.05-7.55c-8.88-2.7-17.74-5.45-23.7-7.27-5.94-1.82-8.96-2.72-12-3.6-3.04-.85-6.1-1.67-12.76-3.3-6.67-1.64-16.96-4.08-27.35-6a330.83 330.83 0 0 0-31.4-4.3c-10.52-.9-21.1-1.35-29.07-1.46s-13.35.1-18.7.48c-5.37.4-10.72.98-17.36 2.03-6.65 1.05-14.6 2.55-22.44 4.45s-15.6 4.17-23.23 6.8c-7.63 2.65-15.14 5.65-23.3 9.36-8.18 3.72-17.02 8.15-25.68 12.88s-17.16 9.77-25.47 15.1a413.65 413.65 0 0 0-24.32 16.9l81.9 43.3a187.72 187.72 0 0 1 11.88-11.3 186.5 186.5 0 0 1 12.82-10.2 192.6 192.6 0 0 1 13.77-9.1c4.78-2.9 9.8-5.67 14.92-8.25s10.33-4.96 14.67-6.8c4.33-1.83 7.8-3.1 11.3-4.27 3.5-1.15 7.04-2.17 10.62-3.06s7.2-1.64 11.6-2.4 9.6-1.47 14.82-2.06a274.55 274.55 0 0 1 15.25-1.34c4.8-.27 9.18-.37 13.56-.3 4.4.06 8.77.3 16.28 1.12 7.52.82 18.16 2.24 28.75 4 10.58 1.75 21.12 3.85 29.68 5.53 8.57 1.68 15.17 2.95 21.77 4.2a3753.8 3753.8 0 0 0 21.03 4c7.8 1.46 16.85 3.1 25.93 4.42 15.02 2.14 30.2 3.53 45.16 3.38 5.93-.1 11.85-.52 17.77-.94 13.68-1.27 27.36-4.14 40.73-8.5 6.62-2.17 13.12-4.67 19.67-7.87 6.56-3.2 13.15-7.1 19.24-11.7a104.3 104.3 0 0 0 16.6-15.68 106.88 106.88 0 0 0 12.87-18.9 43.88 43.88 0 0 0 13.54 18.65 35.6 35.6 0 0 0 11.02 6.03 51.85 51.85 0 0 0 12.17 2.48c8.18.67 16.83-.64 24.18-3.9 3.63-1.62 6.87-3.72 9.67-6.3a34.47 34.47 0 0 0 6.97-9 34.92 34.92 0 0 0 3.66-10.8c.5-3.42.82-6.87.8-10.32l.2-94.02c-.03-1.33.4-2.67 1.84-3.72.4-.28.83-.48 1.3-.6l6.1-1.46c.3-.06.6-.17.9-.3 1.36-.9 1.4-1.52 1.58-2.25v-3.27a2.2 2.2 0 0 0-.14-.7zm-42.9 55.57c-.76 2.14-1.87 4.15-3.28 5.9s-3.14 3.3-5.06 4.5a20.67 20.67 0 0 1-8.5 3.2c-1.52.2-3.05.22-4.4.14-2.6-.16-4.8-.72-7.13-1.77a19.55 19.55 0 0 1-3.12-1.8 21.21 21.21 0 0 1-2.67-2.4c-5.52-5.95-6.14-12.63-5.9-19.13.13-2.98.46-6 1.1-9 .32-1.48.7-2.95 1.04-4.1.63-2.13 1.2-3.42 2.1-5.04a23.1 23.1 0 0 1 4.85-6c6.24-5.52 12.6-5.88 19.23-3.93a19.9 19.9 0 0 1 6.05 3.14 16.44 16.44 0 0 1 3.67 3.65 16.28 16.28 0 0 1 3.1 9.72v16.24a20.3 20.3 0 0 1-1.1 6.67zm-546.77 52.45c.87-1.27 1.2-2.75-.35-4.45-1.27-1.07-2.76-1.37-4.46-.08A146.06 146.06 0 0 1 189 231.72a86.08 86.08 0 0 1-15.52 6.66 85.63 85.63 0 0 1-16.53 3.5c-5.6.6-11.27.66-17.34.15-6.06-.5-12.53-1.58-18.83-3.28a99.1 99.1 0 0 1-18.3-6.94 103 103 0 0 1-16.4-10.2 94.54 94.54 0 0 1-13.4-12.4A95.1 95.1 0 0 1 62 194.67c-6.2-10.42-10.08-21.36-12-31.95a107.17 107.17 0 0 1-1.75-16.16c-.18-5.42.07-10.85.7-16.08s1.68-10.25 3.16-15.14c1.5-4.9 3.4-9.64 5.75-14.18s5.1-8.87 8.1-12.77a80.14 80.14 0 0 1 9.68-10.57 83.95 83.95 0 0 1 11.2-8.6c3.98-2.57 8.17-4.8 12.5-6.55a68.68 68.68 0 0 1 27.27-5.08c4.65.1 9.28.67 13.46 1.56 4.18.88 7.9 2.07 11.48 3.6a61.43 61.43 0 0 1 10.22 5.58 61.24 61.24 0 0 1 9 7.42L224.85.34 63.27.24c-6.4 5.5-12.46 11.43-18.1 17.72S34.27 30.94 29.5 37.92c-4.77 7-9.08 14.3-12.72 21.52-3.63 7.24-6.6 14.4-9 21.76-7.35 22.6-9.7 46.05-6.23 69.4a140.96 140.96 0 0 0 2.27 11.73 126.28 126.28 0 0 0 23.44 47.87 126.8 126.8 0 0 0 18.75 19.15 140.93 140.93 0 0 0 28.47 18.58 121.13 121.13 0 0 0 19.14 7.32 121.04 121.04 0 0 0 40.58 4.5 120.35 120.35 0 0 0 30.3-5.66 119.76 119.76 0 0 0 27.88-13.23 120.48 120.48 0 0 0 23.57-19.9zm430.35-185.6c.9-1.2 1.15-2.55 0-4.08-1.14-1.23-2.5-1.47-4-.7-.48.28-.96.54-1.44.8l4.6 4.67c.3-.18.6-.42.84-.7zM222.9 109.86c-2.33.05-5.52.46-8.3 1.3-3.83 1.24-7.45 2.55-11.25 6.66-1.35 1.45-1.16 3.27.46 5.07.6.6 1.74 1.27 2.44 1.06 2.8-1.26 5.72-2.8 8.43-.53 1.03.88 1.9 2.2 2.27 3.42.22.7.34 1.4.34 2.12v26.45a158.06 158.06 0 0 1-7.9 7.5 149.6 149.6 0 0 1-8.4 6.94 201.64 201.64 0 0 1-7.57 5.5c-1.7 1.17-2.18 1.45-2.67 1.7-2.3 1.12-4.6 1.52-7.26 1.3-1-.12-1.7-.37-2.62-1.2-1.2-1.24-1.64-2.67-1.65-4.1v-49.5c0-.84.22-1.8.97-2.66a3.97 3.97 0 0 1 2.5-1.32l4.13-.4c.9.04 2.33-.98 2.56-1.95.35-1.25.1-2.56.16-3.84-.02-.78-.02-1.5-1.16-2.43a2.8 2.8 0 0 0-1.76-.52c-8.9 0-17.82-.07-26.73 0-.98.1-1.9.04-2.98.6a2.77 2.77 0 0 0-1.2 1.5l-1.46 4.27a3.22 3.22 0 0 1-.64 1c-1.23 1.16-2.67 1.45-4.3.32-6.26-5.2-12.56-7.1-18.92-8.06-7.08-.96-14.43-.24-21.76 2.68a42.7 42.7 0 0 0-12.5 7.76 46 46 0 0 0-4.93 5.4 46.06 46.06 0 0 0-4.02 6.1c-3.78 6.84-5.48 14.24-5.8 21.6a67.18 67.18 0 0 0 1.94 18.32 54.28 54.28 0 0 0 1.53 5.05 34.74 34.74 0 0 0 4.18 8.15c2.35 3.32 5.55 6.83 8.56 9.28 11.52 9.14 23.3 11.05 35.53 8.36a16.45 16.45 0 0 0 5.87-2.94c1.9-1.44 4.24-3.75 5.82-5.8 1.6-2 3.53-2.36 5.7-1.3a4.3 4.3 0 0 1 1.97 2.42 112.64 112.64 0 0 0 1.54 4.05 9.04 9.04 0 0 0 1.86 2.6 8.97 8.97 0 0 0 5.77 2.53 20.25 20.25 0 0 0 7.45-.6c1.2-.32 2.38-.77 4.03-1.53 3.28-1.53 7.9-4.07 11.88-6.76a90.5 90.5 0 0 0 5.74-4.2 934.47 934.47 0 0 0 26.2-22.38l.02 32.85c.02.5.05.94.78 1.53.33.24.73.35 1.12.35h35.35c.5-.03.96-.05 1.57-.78.25-.34.36-.74.36-1.14v-3.8c-.05-.75.03-1.4-1.3-2.35a2.58 2.58 0 0 0-.87-.3l-4.13-.66a5.08 5.08 0 0 1-1.63-.63c-1.9-1.22-2.42-2.8-2.45-4.38l.07-50.83a13.66 13.66 0 0 1 1.3-5.58 9.9 9.9 0 0 1 1.3-2.15c1.54-1.84 3.4-3.13 5.23-3.2a3.47 3.47 0 0 1 2.3.92c1.44 1.42 1.6 3.33.14 5.1a9.66 9.66 0 0 0-1.37 7.35 12.17 12.17 0 0 0 3.78 6.37c.94.82 2 1.5 3.3 2.08 4.02 1.8 9.03 2.2 13.65.47 1.52-.56 3-1.35 4.33-2.35s2.5-2.2 3.46-3.56c2.9-4.17 3.53-9.17 3.46-13.86a20.37 20.37 0 0 0-5.6-13.92 24.57 24.57 0 0 0-5.03-3.68c-5.36-2.94-11.3-3.76-17.25-2.54a21.1 21.1 0 0 0-5 1.84c-3.9 1.97-6.9 5.42-10.24 8.77-1.04.92-2.3 1.25-3.6.45-1.13-.93-1.07-2.26-1.82-3.38a14.7 14.7 0 0 0-3.53-4.28c-2.18-1.76-4.04-2.5-6.3-3.12a20.63 20.63 0 0 0-2.58-.5 18.12 18.12 0 0 0-2.9-.16zm-74.12 58.67a18.93 18.93 0 0 1-7.88 9.86 19.55 19.55 0 0 1-8.06 3 22.07 22.07 0 0 1-4.18.15c-3.43-.23-6.42-1.12-9.7-3.37a20.15 20.15 0 0 1-2.53-2.27c-5.23-5.64-5.82-11.97-5.6-18.12.14-2.83.44-5.7 1.06-8.53.3-1.4.65-2.8.97-3.87.6-2.03 1.15-3.25 2-4.8a21.87 21.87 0 0 1 4.58-5.67c5.9-5.22 11.94-5.56 18.22-3.72 1.93.6 3.87 1.56 5.73 2.98a15.5 15.5 0 0 1 3.48 3.46 15.43 15.43 0 0 1 2.93 9.22l.03 15.38a19.26 19.26 0 0 1-1.05 6.3zm473.45-148.6a6.74 6.74 0 0 1 1.76 2.3c1.8 3.98-.14 8.12 3.73 11.6 2.56 1.64 4.68 1.9 7 .92 2.05-1.06 4.1-2.2 6.15-3.34L618.63 8.8a8.94 8.94 0 0 0-.34 4.28c.42 2.4 1.48 4.76 3.93 6.86zM417.9 53.1c.2.8 1.38 1.65 2.1 1.64l4.17.33a4.4 4.4 0 0 1 4 2.77c.2.54.3 1.1.3 1.68l.12 119.37c-.06 5.1 1.42 10.4 4.63 14.8a24.65 24.65 0 0 0 5.56 5.58 24.63 24.63 0 0 0 7.02 3.52c2.52.78 5.16 1.1 7.8 1.12l24.32.07a25.7 25.7 0 0 0 9.32-1.74 25.62 25.62 0 0 0 8.05-5A25.9 25.9 0 0 0 501 189.7c2.04-4.1 2.84-8.23 2.82-12.23l.02-15.07a127.38 127.38 0 0 0 21.53 7.46 47.64 47.64 0 0 0 10.23 21.02 40.3 40.3 0 0 0 6.1 6.12 39.88 39.88 0 0 0 7.28 4.66 41.3 41.3 0 0 0 8.12 3c2.8.73 5.7 1.17 8.6 1.4 5.7.46 11.98-.12 16.92-1.3a38.17 38.17 0 0 0 6.3-2.07 44.87 44.87 0 0 0 5.52-2.82 43.52 43.52 0 0 0 9.6-7.8 43.58 43.58 0 0 0 7.03-10.18c.73-1.56.48-2.97-.98-4.12-1.6-.98-3-.72-4.2.5-1.72 1.93-3.63 3.7-5.7 5.24s-4.32 2.86-6.67 3.93c-4.73 2.12-9.45 3.13-13.65 3.04a29.52 29.52 0 0 1-12.27-2.86 23.6 23.6 0 0 1-9.66-9.65 23.7 23.7 0 0 1-2.34-6.5 83.86 83.86 0 0 0 14.68-3.24c7.15-2.2 15.32-6 21.64-12.07 2.12-2 4.06-4.2 5.42-5.96 1.36-1.78 2.15-3.12 2.8-4.54a22.6 22.6 0 0 0 2.04-9.02c4.6-3.2 9.27-5.84 13.86-8.6 2.82-1.44 5.63-1.33 8.1-.24a6.6 6.6 0 0 1 3.05 2.5c.8 1.22 1.1 2.55 1.1 3.76l.05 70.37h41.1v-5.1a3.14 3.14 0 0 0-.2-1.12c-.26-.97-1.7-2-2.6-1.98l-4.68-.57a5.2 5.2 0 0 1-3.22-1.78 5.17 5.17 0 0 1-1.23-3.48l.05-54.1c0-.5.05-1.02.17-1.5.34-1.5 1.6-3.2 3.56-4.24 2.7-1.32 5.4-.94 7.6.6 3.16 2.25 6.45 4.04 8.93 4.9 1.63.52 3.3.73 4.9.68 3.53-.1 7.04-1.3 10.15-4.2a29.13 29.13 0 0 0 7.06-9.9 35.55 35.55 0 0 0 2.5-9.12 35.4 35.4 0 0 0-2.53-18.6 27.36 27.36 0 0 0-12.94-13.3c-1.8-.68-3.5-.38-4.8 1.57-.95 1.87-.65 3.56 1 4.95 1.76 1.2 3.47 2.74 5.15 4.57 2.3 2.46 3.5 5 3.86 7.4.35 3 .36 6.14-2.26 8.73-2.52 2.14-4.86 2.1-7.02 1.35a31.1 31.1 0 0 1-6.12-4.03 25.5 25.5 0 0 0-6.1-3.9c-3.62-1.66-7.38-.6-10.38 1.63a12.28 12.28 0 0 0-4.6 7.4 26.67 26.67 0 0 0 .2 8.84 3.04 3.04 0 0 1-.64 2.65c-2 1.87-3.85 1.44-5.27-.13a3.4 3.4 0 0 1-.58-1.13c-.78-2.93-2.06-6.13-4.24-8.66a13.6 13.6 0 0 0-6.5-4.07c-6.9-1.3-13.48.56-20.08 4.65-5.83 3.93-11.97 7.8-17.96 11.72a26.3 26.3 0 0 0-3.77-5.66 26.1 26.1 0 0 0-11.18-7.5c-10.4-3.47-20.8-2.84-30.65.8-3 1.13-5.86 2.57-8.45 4.15s-4.9 3.3-7 5.25a42.5 42.5 0 0 0-5.7 6.42 46.94 46.94 0 0 0-4.28 7.24c-1.17 2.44-2.04 4.8-2.77 7.2a60.26 60.26 0 0 0-2.58 14.8 61.4 61.4 0 0 1-20.57-8.9l-.08-37.52-32.45-.04-.06 24.4c.06 2.48.9 4.95 3.02 7.1l10.6 8.46.03 27.53a8.8 8.8 0 0 1-1.54 5.3 8.82 8.82 0 0 1-1.92 2c-4.52 3.05-8.9 2.98-13.2 2.43-2.25-.4-4.63-.93-6.58-2.62a10.75 10.75 0 0 1-3.43-5.27c-.3-1.02-.4-2.08-.4-3.15l-.08-130.4-39.82-.1v5.05c0 .3.03.63.13.92zm136.94 91.1a40.65 40.65 0 0 1 3.13-7.5 17.92 17.92 0 0 1 10.17-9.36 17.6 17.6 0 0 1 7.6-.65c2.15.33 4.5.85 6.24 2.72a8.44 8.44 0 0 1 1.7 2.6c.4.96.63 2 .66 3.04.22 3.75-.4 7.18-2.82 11-1.64 2.6-4.17 5.4-6.96 7.4-1.4 1-2.93 1.88-4.58 2.68a42 42 0 0 1-5.3 2.1 43.84 43.84 0 0 1-11.35 2.05 40.6 40.6 0 0 1 1.5-16.1zM283.77 52.72c.28 1.07 1.96 2.22 3 2.13h4.24c1.1 0 2.22.38 3.1 1.56.53.74.7 1.53.7 2.26l.05 115.97c0 3.07.45 6.13 1.4 9.05a29.04 29.04 0 0 0 10.6 14.64 29.03 29.03 0 0 0 8.18 4.13c2.92.93 6 1.37 9.05 1.37l60.2.07c6.64.03 13.16-1.66 19.4-6.33 1.92-1.5 3.77-3.3 5.3-5.38a25.3 25.3 0 0 0 3.57-6.82c1.75-5.05 1.78-10.48.46-15.14-.66-2.42-1.7-4.65-3.05-6.68s-3-3.86-4.9-5.4a24.34 24.34 0 0 0-6.26-3.7l-20.4-8.87c-1.33-.54-2.77-1.82-3.4-2.82-2.16-3.6-1.85-7.13 1.23-10.03.47-.35.95-.67 1.45-.97 4.48-2.53 8.46-2.37 13.23-1.64 1.96.33 3.9.8 5.84 1.46 3.33.96 6.6 2.6 9.72 5.48l11.65-25.72-46.14-.04c-4.9.08-10.07 1.13-14.44 4a21.27 21.27 0 0 0-4.63 4.14c-1.33 1.6-2.42 3.38-3.28 5.25a26.84 26.84 0 0 0-2.4 11.9c.18 3.56.65 7.1 3.02 10.47.96 1.46 2.77 3.2 4.92 4.96a40.7 40.7 0 0 0 7.6 4.88l15.77 8.6a8.36 8.36 0 0 1 4.07 4.4c1.57 4.28 1.72 8.7-.78 12.5a11.37 11.37 0 0 1-2.43 2.64c-5.8 3.98-11.46 4-16.9 2.83-3.58-.85-7.32-2.62-10.3-5.35a22.15 22.15 0 0 1-4.34-5.34 22.38 22.38 0 0 1-2.5-6.4 11.5 11.5 0 0 0-6.6 1.68 11.5 11.5 0 0 0-2.64 2.23c.44.34.85.74 1.22 1.16 3.4 4.26 3.4 8.57-.32 12.05a7.8 7.8 0 0 1-1.7 1.1c-3.16 1.15-6.1.66-8.7-1.85a7.93 7.93 0 0 1-1.38-1.9c-1.16-2.36-1-4.54-1.08-6.76V46.9l-40.6-.06v4.6c0 .45.06.88.2 1.3z"/></g></svg>