<svg xmlns="http://www.w3.org/2000/svg" width="135" height="19" xmlns:xlink="http://www.w3.org/1999/xlink"><defs><path id="a" d="M160.65 6.3h3.53v18.4h-3.53V6.3zM57.4 13.36c-2.8-.34-4.1-.66-4.1-2.06 0-2 2.52-2.14 3.3-2.14 1.08 0 2.97.22 3.48 1.7l.2.63 3.3-1.55-.2-.52c-1.18-3.1-5-3.43-6.6-3.43-4.3 0-7.06 2.24-7.06 5.7 0 4.05 3.58 4.5 6.45 4.86 2.75.35 4.43.65 4.43 2.5 0 2.05-2.06 2.77-3.82 2.77-2.07 0-3.9-1.04-4.43-2.52l-.27-.72-3.08 2.1.22.46C50.38 23.6 53.06 25 56.57 25c4.67 0 7.7-2.5 7.7-6.37 0-4.43-3.8-4.9-6.87-5.28zm65.16 11.34h13.3v-3.17h-9.77v-4.9h7.5v-3.07h-7.5v-4.1h9.75V6.3h-13.3v18.38zm46.4-18.4v3.16h5.5V24.7H178V9.45h5.58V6.3h-14.63zm-60.1 0h-3.52v18.38h12.5v-3.15h-8.97V6.3zm36.44 3.16h3.42c2.32 0 3.45.96 3.45 2.93 0 2.5-1.78 3-3.27 3h-3.6V9.47zm3.45-3.16h-6.98v18.4h3.53v-6.26h3.55c5.68 0 6.87-3.33 6.87-6.13 0-3.98-2.34-6-6.97-6zM67.1 9.46h5.5V24.7h3.53V9.45h5.56V6.3H67.1v3.16zM88.78 24.7h3.8l8.6-18.38h-3.8l-8.6 18.38zm-.3-18.38h-3.86l5.16 10.72 1.88-4L88.5 6.3z"/></defs><g fill="none" transform="translate(-49 -6)"><use fill="#191919" xlink:href="#a"/><use xlink:href="#a"/></g></svg>